<?xml version="1.0" standalone="no"?>
<!DOCTYPE svg PUBLIC "-//W3C//DTD SVG 20010904//EN"
 "http://www.w3.org/TR/2001/REC-SVG-20010904/DTD/svg10.dtd">
<svg version="1.0" xmlns="http://www.w3.org/2000/svg"
 width="1280.000000pt" height="1280.000000pt" viewBox="0 0 1280.000000 1280.000000"
 preserveAspectRatio="xMidYMid meet">
<metadata>
Created by potrace 1.15, written by Peter Selinger 2001-2017
</metadata>
<g transform="translate(0.000000,1280.000000) scale(0.100000,-0.100000)"
fill="#ff5722" stroke="none">
<path d="M6135 12794 c-348 -18 -570 -40 -845 -85 -1370 -222 -2588 -892
-3593 -1974 -925 -996 -1467 -2138 -1638 -3448 -67 -519 -72 -1146 -13 -1677
148 -1335 701 -2522 1651 -3545 1082 -1165 2414 -1853 3913 -2019 396 -44 969
-54 1337 -22 681 58 1281 196 1853 426 195 78 551 251 740 359 851 487 1672
1259 2227 2091 604 908 924 1853 1015 3000 17 226 15 812 -6 1047 -71 836
-258 1537 -595 2228 -132 271 -236 454 -396 695 -500 755 -1161 1415 -1915
1915 -783 519 -1655 839 -2610 960 -298 37 -868 62 -1125 49z"/>
</g>
</svg>
