<svg id="svg" version="1.0" xmlns="http://www.w3.org/2000/svg" width="1280.000000pt" height="1280.000000pt" viewBox="0 0 1280.000000 1280.000000" preserveAspectRatio="xMidYMid meet"><g transform="translate(0.000000,1280.000000) scale(0.100000,-0.100000)" fill="#FF7F00" stroke="none">
<path d="M6070 12049 c-47 -4 -141 -13 -210 -19 -1581 -142 -3033 -939 -4006
-2200 -1498 -1941 -1581 -4641 -206 -6670 214 -315 400 -538 692 -831 230
-230 385 -366 615 -539 645 -484 1419 -840 2189 -1004 754 -162 1456 -178
2201 -50 1027 176 1976 629 2775 1324 171 148 498 483 631 645 753 920 1173
1927 1296 3110 25 239 25 830 0 1068 -95 923 -369 1730 -844 2492 -359 577
-852 1115 -1398 1527 -241 181 -363 261 -690 448 -435 250 -1059 478 -1610
589 -465 94 -1099 143 -1435 110z"></path>
</g>
</svg>